<svg width="24" height="24" viewBox="0 0 24 24" fill="none" xmlns="http://www.w3.org/2000/svg">
<path d="M12.8785 20.6337C12.475 20.8136 12.1835 20.8814 12.0031 20.886H12H11.9535C11.7712 20.873 11.4932 20.8025 11.1187 20.6354C10.7213 20.4581 10.2595 20.1922 9.75608 19.8424C8.74949 19.1432 7.62035 18.1397 6.56267 16.9366C4.42616 14.5063 2.70001 11.4004 2.70001 8.478C2.70001 5.78296 4.93307 3.474 7.35301 3.474C9.27104 3.474 10.6155 4.8003 11.3873 5.88801L11.9992 6.75035L12.6108 5.88781C13.3807 4.80204 14.7252 3.474 16.644 3.474C19.0659 3.474 21.298 5.78287 21.298 8.479C21.298 11.4003 19.5717 14.5056 17.4349 16.9356C16.3771 18.1386 15.2479 19.1419 14.2412 19.841C13.7377 20.1906 13.2759 20.4565 12.8785 20.6337Z" stroke="#616770" stroke-width="1.5"/>
</svg>
